# xmcd
#
# Track frame offsets: 
#        150
#        12713
#        26089
#        39270
#        53107
#        67237
#        81009
#        95458
#        111297
#        125039
#        137706
#        148921
#        159897
#        169918
#        181230
#        195871
#        208445
#        220755
#        233144
#        248931
#        263746
#        277835
#        292420
#        306219
#        318572
#
# Disc length: 4399 seconds
#
# Revision: 0
# Processed by: cddbd v1.5.2PL0 Copyright (c) Steve Scherf et al.
# Submitted via: ExactAudioCopyFreeDBPlugin 1.0
#
DISCID=7f112d19
DTITLE=Various Artist - Piano Blues Vol. 5 (1929-1936)
DYEAR=1995
DGENRE=Blues
TTITLE0=Bill Pearson - Good Stuff
TTITLE1=Bill Pearson - Detroit Blues
TTITLE2=Guy Smith - Southland Blues
TTITLE3=Guy Smith - Sad Story Blues
TTITLE4=George Allison and Willie White - How I Feel My Love
TTITLE5=George Allison and Willie White - I'll Be Mean to You Blues
TTITLE6=Monroe Walker - Black Heart Blues
TTITLE7=Monroe Walker - High Powered Mama
TTITLE8=Andy Chatman - Shakin' the Jelly
TTITLE9=Andy Chatman - Hard Times on Me Blues
TTITLE10=George Ramsey - Blacksnake Wiggle
TTITLE11=George Ramsey - No Job Blues
TTITLE12=George Ramsey - Oh What a Fool Blues
TTITLE13=George Ramsey - Perfect Mess Blues
TTITLE14=George Ramsey - I'm Talking 'Bout You No. 2
TTITLE15=George Ramsey - Bumble Bee No. 2
TTITLE16=George Ramsey - Times Done Got Hard
TTITLE17=George Ramsey - Sittin' on Top of the World
TTITLE18=Carrie Edwards - Fattening Frogs for Snakes
TTITLE19=Carrie Edwards - Hard Time Blues
TTITLE20=Carrie Edwards - Gettin' Lots of Lovin'
TTITLE21=Carrie Edwards - Dirty Mistreater
TTITLE22=Sophisticated Jimmy La Rue - Sweet Violets
TTITLE23=Sophisticated Jimmy La Rue - Two Old Maids in a Folding Bed
TTITLE24=Sophisticated Jimmy La Rue - Money Truckin' Blues
EXTD=
EXTT0=
EXTT1=
EXTT2=
EXTT3=
EXTT4=
EXTT5=
EXTT6=
EXTT7=
EXTT8=
EXTT9=
EXTT10=
EXTT11=
EXTT12=
EXTT13=
EXTT14=
EXTT15=
EXTT16=
EXTT17=
EXTT18=
EXTT19=
EXTT20=
EXTT21=
EXTT22=
EXTT23=
EXTT24=
PLAYORDER=
